<svg width="30" height="30" viewBox="0 0 30 30" fill="none" xmlns="http://www.w3.org/2000/svg"> <path d="M14.939 0C23.1895 0 29.878 6.68843 29.878 14.939C29.878 23.1895 23.1895 29.878 14.939 29.878C6.68843 29.878 0 23.1895 0 14.939C0 6.68843 6.68843 0 14.939 0ZM15.1776 20.9146C12.1369 20.9146 9.39937 22.2124 7.48857 24.2843C9.53168 25.9153 12.1215 26.8902 14.939 26.8902C17.8813 26.8902 20.5751 25.827 22.6574 24.0639C20.7587 22.1208 18.1089 20.9146 15.1776 20.9146ZM14.939 2.9878C8.33854 2.9878 2.9878 8.33854 2.9878 14.939C2.9878 17.6439 3.88639 20.1389 5.40131 22.1417C7.85253 19.5464 11.3259 17.9268 15.1776 17.9268C18.8891 17.9268 22.2491 19.4306 24.682 21.8621C26.0725 19.9088 26.8902 17.5194 26.8902 14.939C26.8902 8.33854 21.5395 2.9878 14.939 2.9878ZM14.939 4.48171C18.2392 4.48171 20.9146 7.15708 20.9146 10.4573C20.9146 13.7575 18.2392 16.4329 14.939 16.4329C11.6388 16.4329 8.96342 13.7575 8.96342 10.4573C8.96342 7.15708 11.6388 4.48171 14.939 4.48171ZM14.939 7.46951C13.2889 7.46951 11.9512 8.8072 11.9512 10.4573C11.9512 12.1075 13.2889 13.4451 14.939 13.4451C16.5892 13.4451 17.9268 12.1075 17.9268 10.4573C17.9268 8.8072 16.5892 7.46951 14.939 7.46951Z" fill="#020005"/> </svg>
