<?xml version="1.0" standalone="no"?>
<!DOCTYPE svg PUBLIC "-//W3C//DTD SVG 20010904//EN"
 "http://www.w3.org/TR/2001/REC-SVG-20010904/DTD/svg10.dtd">
<svg version="1.0" xmlns="http://www.w3.org/2000/svg"
 width="406.000000pt" height="407.000000pt" viewBox="0 0 406.000000 407.000000"
 preserveAspectRatio="xMidYMid meet">

<g transform="translate(0.000000,407.000000) scale(0.100000,-0.100000)"
fill="#000000" stroke="none">
<path d="M1835 4019 c-540 -57 -1048 -338 -1377 -762 -292 -378 -448 -868
-424 -1332 32 -639 375 -1233 909 -1580 87 -56 308 -167 357 -180 18 -4 217
46 620 156 327 89 599 165 604 169 4 5 -86 38 -200 75 -401 128 -1239 408
-1267 422 -27 14 -28 16 -12 33 27 29 103 54 775 246 355 102 661 190 680 196
l35 11 -85 22 c-265 70 -577 151 -810 210 -146 38 -272 74 -280 82 -13 13 -13
16 5 30 69 53 225 100 730 218 215 51 265 65 265 75 0 5 -55 27 -122 49 -68
22 -115 40 -105 40 31 2 341 -51 359 -60 10 -5 15 -16 12 -24 -15 -38 -145
-82 -828 -279 -32 -10 -56 -19 -54 -21 2 -2 186 -45 408 -94 676 -150 691
-155 745 -211 26 -27 27 -30 12 -53 -10 -15 -41 -33 -89 -50 -57 -20 -694
-229 -1095 -358 -37 -12 -63 -26 -63 -34 0 -15 -16 -10 655 -215 237 -73 501
-154 589 -181 150 -47 169 -50 172 -28 1 5 2 11 3 13 0 2 20 -15 44 -38 24
-22 56 -49 70 -59 15 -10 27 -27 27 -38 0 -12 7 -45 16 -75 l15 -54 60 41 c93
63 231 182 309 267 351 379 541 858 542 1367 1 408 -110 780 -335 1120 -281
426 -756 748 -1255 850 -209 43 -421 55 -617 34z m843 -895 c13 -14 39 -32 59
-40 l35 -15 -41 -21 c-44 -22 -75 -58 -93 -108 l-10 -31 -23 49 c-22 48 -59
83 -106 100 -21 8 -19 10 24 31 47 23 80 63 93 115 l7 29 16 -41 c9 -23 26
-53 39 -68z m-628 -109 c0 -35 44 -127 82 -169 42 -48 93 -80 163 -102 24 -7
34 -14 25 -17 -87 -30 -117 -46 -155 -79 -50 -44 -86 -101 -105 -163 -6 -22
-14 -47 -17 -55 -3 -8 -13 12 -24 46 -37 120 -123 209 -226 237 -24 6 -43 14
-43 17 0 3 19 11 43 17 102 28 199 132 228 243 11 44 29 60 29 25z"/>
</g>
</svg>
